# xmcd
#
# Track frame offsets: 
#        150
#        16170
#        35732
#
# Disc length: 737 seconds
#
# Revision: 1
# Processed by: cddbd v1.5.2PL0 Copyright (c) Steve Scherf et al.
# Submitted via: ExactAudioCopy v0.99pb5
#
DISCID=1b02df03
DTITLE=Janus Stark - Every Little Thing Counts
DYEAR=1999
DGENRE=Punk
TTITLE0=Every Little Thing Counts (Radio Edit)
TTITLE1=Stop Gap
TTITLE2=Clique (Demo)
EXTD=Aus Album Soul girl
EXTT0=
EXTT1=
EXTT2=
PLAYORDER=
